<svg width="492" height="120" viewBox="0 0 492 120" fill="none" xmlns="http://www.w3.org/2000/svg">
<g clip-path="url(#clip0_0_3)">
<path d="M6.1 93.1V28.2H36.5V36.8H45.3V45.3H54.2V76H45.3V84.6H36.5V93.1H6.1ZM18.8 79.5H32.6V70.9H41.4V50.4H32.6V41.9H18.8V79.5ZM75.1539 93.1V84.6H66.3539V36.8H75.1539V28.2H105.554V36.8H114.454V50.4H101.654V41.9H79.0539V53.9H96.7539V67.4H79.0539V79.5H101.654V70.9H114.454V84.6H105.554V93.1H75.1539ZM144.208 93.1V84.6H135.408V67.4H126.608V28.2H139.308V62.3H148.108V79.5H153.108V62.3H161.908V28.2H174.708V67.4H165.808V84.6H157.008V93.1H144.208Z" fill="#0095FF"/>
<path d="M241 93.2V83.2H250.1V39H241V28.9H269.3V39H260.1V83.2H269.3V93.2H241ZM290.53 93.2V84.2H281.43V74.1H291.53V83.2H317.73V66H290.53V57H281.43V38H290.53V28.9H318.73V38H327.93V48H317.73V39H291.53V56.1H318.73V65H327.93V84.2H318.73V93.2H290.53ZM340.023 93.2V83.2H349.123V39H340.023V28.9H368.323V39H359.123V83.2H368.323V93.2H340.023ZM389.553 93.2V84.2H380.453V38H389.553V28.9H417.753V38H426.953V84.2H417.753V93.2H389.553ZM390.553 83.2H416.753V39H390.553V83.2ZM439.047 93.2V28.9H449.147V38H458.147V47H467.347V74.1H475.347V28.9H485.547V93.2H475.347V84.2H466.347V75.1H457.147V48H449.147V93.2H439.047Z" fill="#5B4DB1"/>
<circle cx="208" cy="60" r="20" fill="url(#paint0_radial_0_3)"/>
</g>
<defs>
<radialGradient id="paint0_radial_0_3" cx="0" cy="0" r="1" gradientUnits="userSpaceOnUse" gradientTransform="translate(197.778 43.3333) rotate(58.4865) scale(37.7314)">
<stop stop-color="#0095FF"/>
<stop offset="1" stop-color="#5B4DB1"/>
</radialGradient>
<clipPath id="clip0_0_3">
<rect width="492" height="120" fill="white"/>
</clipPath>
</defs>
</svg>
